# xmcd
#
# Track frame offsets: 
#        150
#        12623
#        25469
#        38990
#        51154
#        62564
#        75415
#        88302
#        100011
#        111669
#        123888
#        137031
#        149667
#        161291
#        174295
#        187991
#        199371
#        210876
#        224339
#        236052
#        248172
#        260346
#        274122
#        286427
#        299314
#
# Disc length: 4160 seconds
#
# Revision: 1
# Processed by: cddbd v1.5.2PL0 Copyright (c) Steve Scherf et al.
# Submitted via: ExactAudioCopy v1.0b1
#
DISCID=78103e19
DTITLE=Various Artist - Sonny Terry and Brownie McGhee - Country Blues Troubado
DTITLE=urs 1938-1948 - Disc B
DYEAR=2003
DGENRE=Blues
TTITLE0=Brownie McGhee - Step It Up And Go (No. 2)
TTITLE1=Brownie McGhee - Money Spending Woman
TTITLE2=Brownie McGhee - Death Of Blind Boy Fuller (Alt. Take)
TTITLE3=Brownie McGhee - Death Of Blind Boy Fuller
TTITLE4=Brownie McGhee - Got To Find My Little Woman
TTITLE5=Brownie McGhee - I'm A Black Woman's Man (Alt. Take)
TTITLE6=Brownie McGhee - I'm A Black Woman's Man
TTITLE7=Brownie McGhee - Dealing With The Devil
TTITLE8=Brownie McGhee - Double Trouble (Take 1)
TTITLE9=Brownie McGhee - Double Trouble (Take 2)
TTITLE10=Brownie McGhee - Woman I'm Done
TTITLE11=Brownie McGhee - Key To My Door
TTITLE12=Brownie McGhee - Million Lonesome Women
TTITLE13=Brownie McGhee - Ain't No Tellin'
TTITLE14=Brownie McGhee - Try Me One More Time
TTITLE15=Brother George and His Sanctified Singers - I Want To See Jesus
TTITLE16=Brother George and His Sanctified Singers - Done What My Lord S
TTITLE16=aid
TTITLE17=Brother George and His Sanctified Singers - I Want King Jesus
TTITLE18=Brother George and His Sanctified Singers - What Will I Do (Wit
TTITLE18=hout The Lord)
TTITLE19=Brownie McGhee - Key To The Highway 70 (Take 1)
TTITLE20=Brownie McGhee - Key To The Highway 70 (Take 2)
TTITLE21=Brownie McGhee - I Don't Believe In Love
TTITLE22=Brownie McGhee - So Much Trouble
TTITLE23=Brownie McGhee - Goodbye Now
TTITLE24=Brownie McGhee - Jealous Of My Woman
EXTD=YEAR: 2003
EXTT0=
EXTT1=
EXTT2=
EXTT3=
EXTT4=
EXTT5=
EXTT6=
EXTT7=
EXTT8=
EXTT9=
EXTT10=
EXTT11=
EXTT12=
EXTT13=
EXTT14=
EXTT15=
EXTT16=
EXTT17=
EXTT18=
EXTT19=
EXTT20=
EXTT21=
EXTT22=
EXTT23=
EXTT24=
PLAYORDER=
